<svg width="26" height="26" viewBox="0 0 26 26" fill="none" xmlns="http://www.w3.org/2000/svg">
<path d="M0.116211 7.69235C0.201143 7.09254 0.265853 6.4893 0.373807 5.89384C0.985752 2.52115 3.37349 0.226428 6.78756 0.10883C10.8982 -0.0324116 15.0213 -0.0398781 19.1313 0.108208C22.8472 0.241984 25.5382 2.9934 25.6543 6.7105C25.7778 10.6575 25.7778 14.6141 25.6543 18.5611C25.5382 22.2782 22.8481 25.0293 19.1316 25.1634C15.0216 25.3118 10.8976 25.3156 6.78787 25.1613C3.0714 25.0216 0.502293 22.2639 0.25372 18.5412C0.232253 18.2192 0.163188 17.9 0.116211 17.5796C0.116211 14.2837 0.116211 10.9879 0.116211 7.69235ZM12.935 22.9605C14.816 22.9605 16.6988 23.0168 18.5772 22.9474C21.5225 22.8382 23.334 21.0805 23.4028 18.138C23.488 14.4717 23.488 10.8003 23.4028 7.1336C23.334 4.19178 21.5212 2.39297 18.5772 2.33044C14.8405 2.25142 11.0998 2.25204 7.36311 2.33044C4.44151 2.39173 2.62466 4.15414 2.54533 7.0636C2.44453 10.7763 2.44453 14.4956 2.54533 18.2083C2.62466 21.1175 4.44151 22.8392 7.36342 22.9474C9.21823 23.0165 11.0777 22.9605 12.935 22.9605Z" fill="white"/>
<path d="M12.9317 6.10742C9.32479 6.10742 6.40039 9.0315 6.40039 12.6385C6.40039 16.2457 9.32479 19.1698 12.9317 19.1698C16.539 19.1698 19.4631 16.2457 19.4631 12.6385C19.4631 9.0315 16.539 6.10742 12.9317 6.10742ZM12.9317 16.9211C10.5664 16.9211 8.64906 15.0038 8.64906 12.6385C8.64906 10.2731 10.5664 8.35578 12.9317 8.35578C15.2971 8.35578 17.2144 10.2731 17.2144 12.6385C17.2144 15.0038 15.2971 16.9211 12.9317 16.9211Z" fill="white"/>
<path d="M21.3987 5.80886C21.3987 6.66689 20.703 7.36252 19.845 7.36252C18.987 7.36252 18.291 6.66689 18.291 5.80886C18.291 4.95052 18.987 4.25488 19.845 4.25488C20.703 4.25488 21.3987 4.95052 21.3987 5.80886Z" fill="white"/>
</svg>
