<svg width="30" height="25" viewBox="0 0 30 25" fill="none" xmlns="http://www.w3.org/2000/svg">
<path d="M28.6684 0.684437C28.3141 0.243025 27.7836 0 27.1743 0C26.843 0 26.4921 0.0710138 26.1315 0.211463L1.5836 9.75955C0.280868 10.2661 0.105415 11.0263 0.116699 11.4343C0.127983 11.8424 0.345473 12.5913 1.67431 13.0221C1.68228 13.0246 1.69024 13.0271 1.69821 13.0293L6.7901 14.5141L9.5438 22.5375C9.91927 23.6314 10.762 24.3108 11.7435 24.3108C12.3623 24.3108 12.971 24.0466 13.5038 23.547L16.6533 20.5922L21.2215 24.3401C21.2219 24.3406 21.2226 24.3408 21.223 24.3413L21.2664 24.3769C21.2704 24.38 21.2746 24.3834 21.2786 24.3866C21.7863 24.7879 22.3406 24.9998 22.882 25H22.8822C23.94 25 24.7823 24.2022 25.0277 22.9677L29.0498 2.73121C29.2113 1.91895 29.0759 1.19213 28.6684 0.684437ZM8.49352 14.2321L18.3173 9.11839L12.2004 15.7412C12.1001 15.8496 12.0291 15.9824 11.9942 16.1269L10.8147 20.995L8.49352 14.2321ZM12.3526 22.2733C12.3119 22.3114 12.271 22.3454 12.23 22.3768L13.3243 17.8608L15.3149 19.4941L12.3526 22.2733ZM27.3844 2.38741L23.3623 22.6241C23.3236 22.8177 23.1999 23.2684 22.882 23.2684C22.7249 23.2684 22.5275 23.1811 22.3255 23.0227L17.1491 18.7758C17.1484 18.7751 17.1476 18.7745 17.1467 18.774L14.0666 16.2468L22.9125 6.66943C23.1957 6.36283 23.2214 5.89324 22.9733 5.55643C22.7251 5.21962 22.2753 5.11367 21.9074 5.30529L7.35827 12.8787L2.19713 11.3742L26.7375 1.829C26.9448 1.74829 27.0895 1.73138 27.1743 1.73138C27.2263 1.73138 27.3187 1.7377 27.353 1.78075C27.3982 1.83689 27.4557 2.02829 27.3844 2.38741Z" fill="white"/>
</svg>
