<svg width="194" height="50" viewBox="0 0 194 50" fill="none" xmlns="http://www.w3.org/2000/svg">
<path d="M10.0537 5.52734C11.3232 3.96484 12.7555 2.71159 14.3506 1.76758C15.9782 0.791016 17.7523 0.384115 19.6729 0.546875C21.5934 0.709635 23.2699 1.6862 24.7021 3.47656C26.3949 5.75521 26.9808 8.09896 26.46 10.5078C25.9717 12.9167 24.7835 15.1628 22.8955 17.2461C21.04 19.3294 18.8265 20.957 16.2549 22.1289C18.8916 22.9753 21.1051 24.3913 22.8955 26.377C24.6859 28.3626 25.695 30.6738 25.9229 33.3105C26.1507 35.9147 25.1579 38.6491 22.9443 41.5137C21.6423 43.1087 20.2588 44.1829 18.7939 44.7363C17.3617 45.2897 16.027 45.3711 14.79 44.9805C13.5531 44.5898 12.3649 43.9551 11.2256 43.0762C10.0863 42.1973 9.12598 41.2207 8.34473 40.1465C7.56348 39.1048 6.96126 38.0794 6.53809 37.0703C6.31022 39.9349 6.19629 41.9531 6.19629 43.125C6.16374 43.6133 5.43132 43.9876 3.99902 44.248C2.37142 44.541 1.44368 44.3783 1.21582 43.7598C1.18327 43.6621 1.16699 43.5645 1.16699 43.4668C0.939128 42.7507 0.727539 39.8861 0.532227 34.873C0.336914 29.8275 0.320638 24.0007 0.483398 17.3926C0.646159 10.7845 1.10189 5.72266 1.85059 2.20703C2.56673 1.26302 3.59212 0.742188 4.92676 0.644531C6.26139 0.546875 7.44954 0.742188 8.49121 1.23047C9.56543 1.6862 10.1514 2.20703 10.249 2.79297C10.249 3.05339 10.1839 3.96484 10.0537 5.52734ZM16.9873 3.81836C15.9131 3.78581 14.6924 4.25781 13.3252 5.23438C11.9906 6.17839 10.7861 7.36654 9.71191 8.79883C9.54915 10.3613 9.02832 14.707 8.14941 21.8359C9.48405 21.8685 11.4209 20.6966 13.96 18.3203C16.9548 15.4883 18.9404 12.7214 19.917 10.0195C21.1214 6.66667 20.1449 4.59961 16.9873 3.81836ZM16.499 40.1953C17.0524 39.4141 17.4593 38.3724 17.7197 37.0703C18.0127 35.7357 18.0615 34.3197 17.8662 32.8223C17.7035 31.3249 17.2965 29.9251 16.6455 28.623C16.027 27.2884 14.9528 26.1816 13.4229 25.3027C11.8929 24.3913 10.0537 23.9355 7.90527 23.9355C7.51465 27.4512 7.23796 30.0391 7.0752 31.6992C7.1403 31.7969 7.28678 32.041 7.51465 32.4316C7.77507 32.7897 8.05176 33.1966 8.34473 33.6523C8.6377 34.0755 8.96322 34.5801 9.32129 35.166C9.71191 35.752 10.1025 36.3216 10.4932 36.875C10.9163 37.3958 11.3558 37.9167 11.8115 38.4375C12.2673 38.9583 12.7067 39.3978 13.1299 39.7559C13.5531 40.1139 13.96 40.3906 14.3506 40.5859C14.7738 40.8138 15.1644 40.8952 15.5225 40.8301C15.9131 40.765 16.2386 40.5534 16.499 40.1953ZM37.9834 14.707C40.0993 14.6745 41.8408 15.3255 43.208 16.6602C45.0635 18.4505 45.1449 20.6315 43.4521 23.2031C41.8245 25.7096 38.6182 28.2812 33.833 30.918C35.7536 38.7305 39.6924 36.7611 45.6494 25.0098C46.2028 23.8704 46.9515 22.3079 47.8955 20.3223C48.4489 19.1829 48.8232 18.418 49.0186 18.0273C49.1813 17.832 49.4255 17.7507 49.751 17.7832C50.0765 17.8158 50.2555 17.9297 50.2881 18.125C49.4092 21.3802 48.1722 24.6029 46.5771 27.793C44.9821 30.9505 43.1429 33.7337 41.0596 36.1426C39.0088 38.5514 36.7139 39.6582 34.1748 39.4629C31.6683 39.2676 29.3083 37.3796 27.0947 33.7988C26.639 33.0176 26.3298 32.041 26.167 30.8691C25.9717 29.6647 25.9229 28.3789 26.0205 27.0117C26.0856 25.6445 26.3949 24.2773 26.9482 22.9102C27.5016 21.5104 28.2178 20.2409 29.0967 19.1016C29.9756 17.9297 31.18 16.9531 32.71 16.1719C34.2725 15.3581 36.0303 14.8698 37.9834 14.707ZM40.6201 17.7344C39.5459 17.7018 38.4391 18.4505 37.2998 19.9805C36.1605 21.5104 35.2979 23.1055 34.7119 24.7656C34.126 26.3932 33.9469 27.4349 34.1748 27.8906C36.2256 27.2396 38.1787 25.8073 40.0342 23.5938C41.8245 21.4779 42.4756 19.834 41.9873 18.6621C41.7594 18.1738 41.3037 17.8646 40.6201 17.7344ZM52.0459 15.3906C52.5993 15.1953 53.1364 15.0977 53.6572 15.0977C54.1781 15.0651 54.6826 15.1628 55.1709 15.3906C55.6592 15.5859 56.0661 15.765 56.3916 15.9277C56.7497 16.0905 57.1729 16.3997 57.6611 16.8555C58.1494 17.2786 58.4912 17.6042 58.6865 17.832C58.8818 18.0273 59.2236 18.3854 59.7119 18.9062C59.9398 17.832 60.6071 17.0671 61.7139 16.6113C62.8206 16.123 63.8786 16.0417 64.8877 16.3672C65.8968 16.6927 66.3851 17.3112 66.3525 18.2227C63.7809 28.9323 63.3415 34.0918 65.0342 33.7012C66.6943 33.3431 70.0146 27.9557 74.9951 17.5391C75.0277 17.5065 75.1416 17.474 75.3369 17.4414C75.5322 17.4089 75.7113 17.4089 75.874 17.4414C76.0693 17.474 76.1507 17.5716 76.1182 17.7344C75.7275 19.1992 75.3857 20.4199 75.0928 21.3965C74.8324 22.373 74.4417 23.6263 73.9209 25.1562C73.4001 26.6862 72.8955 27.9557 72.4072 28.9648C71.9189 29.974 71.3005 31.0645 70.5518 32.2363C69.8356 33.4082 69.0869 34.3197 68.3057 34.9707C67.5244 35.6217 66.613 36.1426 65.5713 36.5332C64.5622 36.8913 63.488 37.0052 62.3486 36.875C60.6559 36.6471 59.5003 35.6543 58.8818 33.8965C57.8727 35.752 56.4893 36.9076 54.7314 37.3633C53.0062 37.7865 51.1019 37.2982 49.0186 35.8984C47.5863 34.6615 46.7399 32.513 46.4795 29.4531C46.2191 26.3607 46.6097 23.3984 47.6514 20.5664C48.693 17.7018 50.1579 15.9766 52.0459 15.3906ZM59.2236 21.5918C58.2471 20.4525 57.3031 19.9479 56.3916 20.0781C55.5127 20.0781 54.7477 20.9733 54.0967 22.7637C53.4782 24.5215 53.1527 26.377 53.1201 28.3301C53.1201 30.2832 53.348 31.9434 53.8037 33.3105C54.292 33.8965 54.9756 33.4896 55.8545 32.0898C56.7334 30.6576 57.6123 28.8509 58.4912 26.6699C58.7191 24.7819 58.9632 23.0892 59.2236 21.5918ZM72.4561 8.75C75.2881 8.22917 77.0622 8.75 77.7783 10.3125C78.527 11.875 77.9085 14.3978 75.9229 17.8809C76.9645 17.7507 78.2829 17.2949 79.8779 16.5137C81.473 15.6999 82.5472 15.0488 83.1006 14.5605C83.5889 14.1374 84.1423 13.9095 84.7607 13.877C85.3792 13.8118 85.9489 13.8932 86.4697 14.1211C87.0231 14.349 87.5277 14.6094 87.9834 14.9023C88.4391 15.1628 88.7972 15.4232 89.0576 15.6836C89.318 15.944 89.432 16.0905 89.3994 16.123C89.4971 16.2533 88.9925 17.7344 87.8857 20.5664C86.8115 23.3659 85.8675 26.1979 85.0537 29.0625C84.2399 31.8945 84.1911 33.5059 84.9072 33.8965C86.1117 34.6126 87.6742 33.8802 89.5947 31.6992C91.5153 29.4857 93.1917 27.0117 94.624 24.2773C96.0563 21.543 97.0166 19.3783 97.5049 17.7832C97.6351 17.5228 97.9281 17.5065 98.3838 17.7344C98.4814 17.7995 98.5465 17.8483 98.5791 17.8809C98.4814 19.7363 97.8304 22.0801 96.626 24.9121C95.4215 27.7116 93.8916 30.3158 92.0361 32.7246C90.1807 35.1335 88.1462 36.8587 85.9326 37.9004C83.7191 38.9421 81.5706 38.6165 79.4873 36.9238C78.9339 36.2402 78.6247 35.166 78.5596 33.7012C78.4945 32.2038 78.6247 30.5924 78.9502 28.8672C79.3083 27.1419 79.6826 25.4818 80.0732 23.8867C80.4964 22.2917 80.887 20.8431 81.2451 19.541C81.6357 18.2389 81.8473 17.4577 81.8799 17.1973C80.708 17.7832 79.8617 18.1901 79.3408 18.418C78.8525 18.6458 78.1038 18.9225 77.0947 19.248C76.1182 19.5736 75.223 19.7038 74.4092 19.6387C73.6279 19.541 72.8304 19.2806 72.0166 18.8574C70.9098 18.1087 70.1611 17.002 69.7705 15.5371C69.3473 14.0397 69.3799 12.6237 69.8682 11.2891C70.3564 9.95443 71.2191 9.10807 72.4561 8.75ZM75.5322 11.3867C74.8161 11.3542 74.2464 11.7936 73.8232 12.7051C73.3675 13.6165 73.1722 14.6094 73.2373 15.6836C73.3024 16.7253 73.5954 17.4251 74.1162 17.7832C74.1488 17.6204 74.279 17.2786 74.5068 16.7578C74.7347 16.2044 74.9626 15.651 75.1904 15.0977C75.4183 14.5443 75.6136 13.9909 75.7764 13.4375C75.9717 12.8516 76.0531 12.3796 76.0205 12.0215C75.988 11.6309 75.8252 11.4193 75.5322 11.3867ZM99.3604 2.93945C108.052 2.58138 119.038 2.82552 132.319 3.67188C133.361 4.94141 133.735 6.19466 133.442 7.43164C133.182 8.63607 132.645 9.33594 131.831 9.53125C128.739 9.43359 124.604 9.25456 119.429 8.99414C119.201 11.1751 118.729 14.8372 118.013 19.9805C117.329 25.0911 116.743 29.7461 116.255 33.9453C115.767 38.112 115.522 41.2044 115.522 43.2227C115.522 43.8086 115.099 44.2806 114.253 44.6387C113.407 44.9967 112.56 45.0781 111.714 44.8828C110.868 44.7201 110.444 44.2806 110.444 43.5645C110.119 42.4577 109.924 38.0794 109.858 30.4297C109.793 22.7474 110.086 15.472 110.737 8.60352C105.366 8.37565 101.672 8.26172 99.6533 8.26172C98.3838 8.32682 97.5863 7.91992 97.2607 7.04102C96.9352 6.12956 97.0166 5.2181 97.5049 4.30664C97.9932 3.39518 98.6117 2.93945 99.3604 2.93945ZM128.755 8.75C131.587 8.22917 133.361 8.75 134.077 10.3125C134.826 11.875 134.207 14.3978 132.222 17.8809C133.263 17.7507 134.582 17.2949 136.177 16.5137C137.772 15.6999 138.846 15.0488 139.399 14.5605C139.888 14.1374 140.441 13.9095 141.06 13.877C141.678 13.8118 142.248 13.8932 142.769 14.1211C143.322 14.349 143.826 14.6094 144.282 14.9023C144.738 15.1628 145.096 15.4232 145.356 15.6836C145.617 15.944 145.731 16.0905 145.698 16.123C145.796 16.2533 145.291 17.7344 144.185 20.5664C143.11 23.3659 142.166 26.1979 141.353 29.0625C140.539 31.8945 140.49 33.5059 141.206 33.8965C142.41 34.6126 143.973 33.8802 145.894 31.6992C147.814 29.4857 149.491 27.0117 150.923 24.2773C152.355 21.543 153.315 19.3783 153.804 17.7832C153.934 17.5228 154.227 17.5065 154.683 17.7344C154.78 17.7995 154.845 17.8483 154.878 17.8809C154.78 19.7363 154.129 22.0801 152.925 24.9121C151.72 27.7116 150.19 30.3158 148.335 32.7246C146.479 35.1335 144.445 36.8587 142.231 37.9004C140.018 38.9421 137.869 38.6165 135.786 36.9238C135.233 36.2402 134.924 35.166 134.858 33.7012C134.793 32.2038 134.924 30.5924 135.249 28.8672C135.607 27.1419 135.981 25.4818 136.372 23.8867C136.795 22.2917 137.186 20.8431 137.544 19.541C137.935 18.2389 138.146 17.4577 138.179 17.1973C137.007 17.7832 136.16 18.1901 135.64 18.418C135.151 18.6458 134.403 18.9225 133.394 19.248C132.417 19.5736 131.522 19.7038 130.708 19.6387C129.927 19.541 129.129 19.2806 128.315 18.8574C127.209 18.1087 126.46 17.002 126.069 15.5371C125.646 14.0397 125.679 12.6237 126.167 11.2891C126.655 9.95443 127.518 9.10807 128.755 8.75ZM131.831 11.3867C131.115 11.3542 130.545 11.7936 130.122 12.7051C129.666 13.6165 129.471 14.6094 129.536 15.6836C129.601 16.7253 129.894 17.4251 130.415 17.7832C130.448 17.6204 130.578 17.2786 130.806 16.7578C131.034 16.2044 131.261 15.651 131.489 15.0977C131.717 14.5443 131.912 13.9909 132.075 13.4375C132.271 12.8516 132.352 12.3796 132.319 12.0215C132.287 11.6309 132.124 11.4193 131.831 11.3867ZM156.44 11.0938C158.068 10.6706 159.175 10.8984 159.761 11.7773C160.054 12.2982 160.07 13.0143 159.81 13.9258C159.549 14.8047 159.077 15.3255 158.394 15.4883C157.677 15.6836 156.912 15.7161 156.099 15.5859C155.285 15.4232 154.764 15.0977 154.536 14.6094C154.276 14.056 154.341 13.3724 154.731 12.5586C155.155 11.7448 155.724 11.2565 156.44 11.0938ZM152.534 17.2949C153.055 16.6113 154.357 16.416 156.44 16.709C158.556 17.002 159.647 17.4902 159.712 18.1738C159.647 18.4342 159.565 18.7923 159.468 19.248C159.37 19.7038 159.224 20.5827 159.028 21.8848C158.833 23.1868 158.687 24.4238 158.589 25.5957C158.491 26.7676 158.475 28.0697 158.54 29.502C158.605 30.9017 158.784 32.0736 159.077 33.0176C160.054 35.5566 161.649 33.9779 163.862 28.2812C164.806 25.8073 165.929 22.3242 167.231 17.832C167.427 17.5391 167.687 17.3763 168.013 17.3438C168.338 17.3112 168.615 17.36 168.843 17.4902C169.071 17.6204 169.168 17.7344 169.136 17.832C168.81 21.543 167.703 25.612 165.815 30.0391C163.537 35.4102 161.144 38.4049 158.638 39.0234C156.717 39.5117 154.91 38.4212 153.218 35.752C151.46 33.2454 151.086 28.0046 152.095 20.0293L152.534 17.2949ZM180.269 15.0977C184.598 15.0977 185.981 18.6784 184.419 25.8398C186.86 23.6263 189.22 20.8757 191.499 17.5879C191.629 17.4251 191.841 17.36 192.134 17.3926C192.427 17.3926 192.687 17.4902 192.915 17.6855C193.143 17.8809 193.192 18.0762 193.062 18.2715C190.36 22.9264 187.186 26.6211 183.54 29.3555C182.173 33.7826 180.773 36.5332 179.341 37.6074C178.267 38.6816 176.883 39.056 175.19 38.7305C173.53 38.4049 172.375 37.6725 171.724 36.5332C171.105 35.3939 171.252 34.1243 172.163 32.7246C172.749 32.041 174.246 31.4062 176.655 30.8203C178.608 26.9466 179.601 23.9193 179.634 21.7383C179.634 20.4036 179.146 19.7852 178.169 19.8828C177.778 19.8177 177.371 19.8665 176.948 20.0293C176.525 20.1921 176.118 20.4688 175.728 20.8594C175.369 21.25 175.028 21.6569 174.702 22.0801C174.377 22.5033 174.035 23.0404 173.677 23.6914C173.319 24.3099 173.026 24.847 172.798 25.3027C172.57 25.7259 172.293 26.263 171.968 26.9141C171.675 27.5326 171.463 27.9557 171.333 28.1836C171.3 30.9831 171.284 37.1842 171.284 46.7871C171.317 47.9264 170.894 48.6914 170.015 49.082C169.168 49.4727 168.306 49.5052 167.427 49.1797C166.548 48.8542 166.125 48.3984 166.157 47.8125C165.636 45.1107 165.278 41.2858 165.083 36.3379C164.855 31.3574 164.774 26.9466 164.839 23.1055C164.904 19.2643 165.034 17.0508 165.229 16.4648C165.099 16.0742 165.474 15.6999 166.353 15.3418C167.85 14.7233 169.25 14.6908 170.552 15.2441C171.17 15.5046 171.642 15.9115 171.968 16.4648C171.707 16.7253 171.528 18.9388 171.431 23.1055C172.505 20.6315 173.807 18.6784 175.337 17.2461C176.899 15.8138 178.543 15.0977 180.269 15.0977ZM174.946 33.7988C174.002 34.0918 173.4 34.3197 173.14 34.4824C172.912 34.6452 172.944 34.8568 173.237 35.1172C173.368 35.3125 173.579 35.2962 173.872 35.0684C174.165 34.8079 174.523 34.3848 174.946 33.7988Z" fill="#62BAAF"/>
</svg>
