<svg width="1920" height="485" viewBox="0 0 1920 485" fill="none" xmlns="http://www.w3.org/2000/svg">
<circle cx="1451.36" cy="362.361" r="51.5" transform="rotate(-15 1451.36 362.361)" stroke="white" stroke-width="7"/>
<path d="M1476.42 353.476C1478.65 354.073 1479.39 356.862 1477.76 358.495L1444.08 392.175C1442.45 393.808 1439.66 393.061 1439.06 390.83L1426.73 344.822C1426.13 342.591 1428.18 340.55 1430.41 341.148L1476.42 353.476Z" fill="white"/>
<path d="M421.538 214.887C417.654 215.179 414.118 216.966 411.58 219.921C409.042 222.875 407.805 226.641 408.099 230.524C408.392 234.408 410.181 237.945 413.235 240.568L432.671 256.372L424.112 305.268C423.821 306.934 424.427 308.631 425.711 309.732L433.824 316.704C434.935 317.661 436.426 318.055 437.865 317.774C439.305 317.496 440.538 316.572 441.211 315.269L460.12 278.69L481.172 295.804L483.1 311.898C483.326 313.785 484.648 315.361 486.466 315.916C488.285 316.47 490.26 315.896 491.499 314.454L517.051 284.724C517.895 283.742 518.29 282.482 518.196 281.235C518.152 280.654 518.003 280.075 517.74 279.529C516.919 277.814 515.163 276.744 513.263 276.805L497.056 277.314L476.896 259.007L510.291 234.892C511.481 234.032 512.212 232.674 512.275 231.207C512.332 229.737 511.723 228.324 510.609 227.366L502.496 220.393C501.222 219.297 499.465 218.948 497.867 219.475L450.552 235.087L432.14 218.37C429.187 215.832 425.422 214.594 421.538 214.887ZM425.789 225.559L446.175 244.07C447.454 245.232 449.261 245.615 450.903 245.076L498.299 229.436L499.744 230.677L467.137 254.223C466.833 254.443 466.553 254.7 466.308 254.986L465.794 255.584C464.932 256.588 464.556 257.847 464.648 259.072C464.737 260.253 465.262 261.403 466.206 262.262L491.689 285.395C491.638 285.351 491.586 285.305 491.579 285.298C491.704 285.428 491.831 285.558 491.967 285.684C492.892 286.544 494.12 287.004 495.383 286.965L502.676 286.736L491.331 299.936L490.463 292.7C490.311 291.437 489.663 290.285 488.662 289.498C488.535 289.397 488.404 289.304 488.236 289.187L461.646 267.569C459.63 265.929 456.676 266.194 454.982 268.164L454.796 268.38C454.553 268.663 454.344 268.972 454.174 269.303L435.475 305.476L434.031 304.235L442.605 255.253C442.902 253.543 442.254 251.801 440.906 250.704L419.384 233.208C417.361 231.469 417.116 228.194 418.853 226.174C419.721 225.164 420.93 224.553 422.258 224.453C423.586 224.353 424.875 224.776 425.789 225.559Z" fill="white"/>
<path d="M-44.9999 265.214C-44.9999 265.214 38.4448 146.919 172.834 137.644C307.224 128.37 400.519 209.411 400.519 209.411" stroke="white" stroke-width="8" stroke-dasharray="15 15"/>
<path d="M757.455 451.565C757.455 451.565 678.458 427.946 632.421 401.656C585.119 374.644 522.649 316 522.649 316" stroke="white" stroke-width="8" stroke-dasharray="15 15"/>
<path d="M1386 404C1386 404 1350.08 428.221 1300.5 447C1249.56 466.295 1194 466.838 1194 466.838" stroke="white" stroke-width="8" stroke-dasharray="15 15"/>
<path d="M1947.43 277.447C1947.43 277.447 1872.81 284.734 1781.89 272.495C1688.47 259.92 1603.46 215 1603.46 215" stroke="white" stroke-width="8" stroke-dasharray="15 15"/>
<path d="M1559.5 187.5C1508.97 145 1508.97 1.55371 1592 16.4998C1717 38.9997 1508.97 316.214 1508.97 316.214" stroke="white" stroke-width="8" stroke-dasharray="15 15"/>
</svg>
