<svg width="24" height="23" viewBox="0 0 24 23" fill="none" xmlns="http://www.w3.org/2000/svg">
<path fill-rule="evenodd" clip-rule="evenodd" d="M19.7651 3.34247C17.603 1.18818 14.7276 0.00126343 11.6643 0C5.35206 0 0.214809 5.11253 0.21227 11.3963C0.211424 13.405 0.73869 15.3658 1.74089 17.0942L0.116211 23L6.18711 21.4151C7.85989 22.3232 9.74313 22.8018 11.6597 22.8023H11.6645C17.976 22.8023 23.1138 17.6894 23.1162 11.4054C23.1175 8.35996 21.9274 5.49661 19.7651 3.34247ZM11.6643 20.8776H11.6604C9.95246 20.8769 8.27742 20.4201 6.8158 19.5572L6.46838 19.3518L2.86581 20.2923L3.82739 16.7967L3.601 16.4383C2.64816 14.9301 2.14502 13.1868 2.14586 11.397C2.14784 6.17409 6.41788 1.9249 11.6681 1.9249C14.2105 1.92574 16.6004 2.91234 18.3975 4.7029C20.1945 6.49346 21.1836 8.87347 21.1828 11.4047C21.1805 16.628 16.9107 20.8776 11.6643 20.8776ZM16.8854 13.7829C16.5993 13.6402 15.1924 12.9515 14.93 12.8564C14.668 12.7613 14.477 12.714 14.2864 12.999C14.0955 13.284 13.5473 13.9255 13.3803 14.1154C13.2132 14.3055 13.0465 14.3294 12.7603 14.1867C12.4741 14.0443 11.5522 13.7434 10.4591 12.7733C9.60856 12.0181 9.03432 11.0856 8.86731 10.8006C8.70059 10.5154 8.8659 10.3761 8.99285 10.2194C9.30261 9.83663 9.61279 9.43528 9.70815 9.24534C9.80364 9.05527 9.75583 8.88892 9.68417 8.74643C9.61279 8.60394 9.04053 7.20224 8.80215 6.63187C8.56969 6.07681 8.33398 6.15177 8.15823 6.14307C7.9915 6.13478 7.80065 6.1331 7.6098 6.1331C7.41909 6.1331 7.10905 6.20427 6.84669 6.48953C6.58447 6.77464 5.84533 7.46349 5.84533 8.86519C5.84533 10.2669 6.87067 11.621 7.0137 11.8111C7.15673 12.0012 9.0315 14.8776 11.9018 16.1109C12.5846 16.4046 13.1175 16.5797 13.5332 16.7109C14.2187 16.9277 14.8423 16.8971 15.3354 16.8238C15.8853 16.742 17.0282 16.1348 17.2669 15.4697C17.5053 14.8044 17.5053 14.2343 17.4336 14.1154C17.3623 13.9967 17.1714 13.9255 16.8854 13.7829Z" fill="white"/>
</svg>
