<svg width="33" height="19" viewBox="0 0 33 19" fill="none" xmlns="http://www.w3.org/2000/svg">
<path d="M16.3094 19C20.9387 19 19.288 16.2159 19.6453 15.4153C19.64 14.8175 19.6347 14.2424 19.656 13.8928C19.9493 13.9713 20.6413 14.3045 22.0706 15.6243C24.2773 17.7397 24.8413 19 26.6239 19H29.9052C30.9452 19 31.4865 18.5909 31.7572 18.2476C32.0185 17.9157 32.2745 17.3331 31.9945 16.4261C31.2625 14.2424 26.9932 10.4715 26.7279 10.0738C26.7679 10.0003 26.8319 9.9028 26.8653 9.85213H26.8626C27.7052 8.79447 30.9212 4.21673 31.3945 2.38513C31.3959 2.3826 31.3972 2.3788 31.3972 2.375C31.6532 1.539 31.4185 0.996867 31.1759 0.690333C30.8105 0.2318 30.2292 0 29.4439 0H26.1626C25.0639 0 24.2306 0.525667 23.8093 1.48453C23.104 3.1882 21.1226 6.6918 19.6373 7.93187C19.592 6.175 19.6227 4.8336 19.6467 3.83673C19.6947 1.8924 19.8493 0 17.7254 0H12.5681C11.2374 0 9.9641 1.38067 11.3428 3.01973C12.5481 4.45613 11.7761 5.25667 12.0361 9.2416C11.0228 8.20927 9.22011 5.42133 7.94546 1.8582C7.58813 0.894267 7.0468 0.00126657 5.52282 0.00126657H2.24152C0.910869 0.00126657 0.116211 0.690333 0.116211 1.84427C0.116211 4.43587 6.15481 19 16.3094 19ZM5.52282 1.90127C5.81215 1.90127 5.84148 1.90127 6.05615 2.48013C7.36146 6.13193 10.2894 11.5355 12.4281 11.5355C14.0347 11.5355 14.0347 9.9712 14.0347 9.3822L14.0334 4.693C13.9454 3.14133 13.3507 2.36867 12.9601 1.9L17.6374 1.90507C17.64 1.9266 17.6107 7.09207 17.6507 8.34353C17.6507 10.1207 19.136 11.1391 21.4546 8.90973C23.9013 6.28647 25.5933 2.36487 25.6613 2.20527C25.7613 1.97727 25.8479 1.9 26.1626 1.9H29.4439H29.4572C29.4559 1.9038 29.4559 1.9076 29.4546 1.9114C29.1546 3.2414 26.1933 7.47967 25.2026 8.79573C25.1866 8.816 25.1719 8.83753 25.1573 8.85907C24.7213 9.53547 24.3666 10.2828 25.2173 11.3341H25.2186C25.2959 11.4228 25.4973 11.6305 25.7906 11.9193C26.7026 12.8136 29.8306 15.8713 30.1079 17.0873C29.9239 17.1152 29.7239 17.0949 26.6239 17.1013C25.9639 17.1013 25.4479 16.1639 23.4786 14.2766C21.708 12.6401 20.5587 11.9713 19.512 11.9713C17.48 11.9713 17.628 13.5381 17.6467 15.4331C17.6534 17.4876 17.64 16.8378 17.6547 16.967C17.536 17.0113 17.196 17.1 16.3094 17.1C7.84946 17.1 2.34019 4.3434 2.12819 1.90507C2.20152 1.89873 3.21084 1.90253 5.52282 1.90127Z" fill="white"/>
</svg>
