<svg width="505" height="153" viewBox="0 0 505 153" fill="none" xmlns="http://www.w3.org/2000/svg">
<path d="M28.4375 28.2646C31.7383 24.2021 35.4622 20.9437 39.6094 18.4893C43.8411 15.9502 48.4538 14.8923 53.4473 15.3154C58.4408 15.7386 62.7995 18.2777 66.5234 22.9326C70.9245 28.8571 72.4479 34.9508 71.0938 41.2139C69.8242 47.4769 66.735 53.3167 61.8262 58.7334C57.002 64.1501 51.2467 68.3818 44.5605 71.4287C51.416 73.6292 57.1712 77.3109 61.8262 82.4736C66.4811 87.6364 69.1048 93.6455 69.6973 100.501C70.2897 107.272 67.7083 114.381 61.9531 121.829C58.5677 125.976 54.9707 128.769 51.1621 130.208C47.4382 131.647 43.9681 131.858 40.752 130.843C37.5358 129.827 34.4466 128.177 31.4844 125.892C28.5221 123.606 26.0254 121.067 23.9941 118.274C21.9629 115.566 20.3971 112.9 19.2969 110.276C18.7044 117.724 18.4082 122.972 18.4082 126.019C18.3236 127.288 16.4193 128.261 12.6953 128.938C8.46354 129.7 6.05143 129.277 5.45898 127.669C5.37435 127.415 5.33203 127.161 5.33203 126.907C4.73958 125.045 4.18945 117.597 3.68164 104.563C3.17383 91.445 3.13151 76.2952 3.55469 59.1143C3.97786 41.9333 5.16276 28.7725 7.10938 19.6318C8.97135 17.1774 11.6374 15.8232 15.1074 15.5693C18.5775 15.3154 21.6667 15.8232 24.375 17.0928C27.168 18.2777 28.6914 19.6318 28.9453 21.1553C28.9453 21.8324 28.776 24.2021 28.4375 28.2646ZM46.4648 23.8213C43.6719 23.7367 40.498 24.9639 36.9434 27.5029C33.4733 29.9574 30.3418 33.0465 27.5488 36.7705C27.1257 40.833 25.7715 52.1318 23.4863 70.667C26.9564 70.7516 31.9922 67.7048 38.5938 61.5264C46.3802 54.1631 51.543 46.9691 54.082 39.9443C57.2135 31.2269 54.6745 25.8525 46.4648 23.8213ZM45.1953 118.401C46.6341 116.37 47.6921 113.662 48.3691 110.276C49.1309 106.806 49.2578 103.125 48.75 99.2314C48.3268 95.3382 47.2689 91.6989 45.5762 88.3135C43.9681 84.8434 41.1751 81.9658 37.1973 79.6807C33.2194 77.3109 28.4375 76.126 22.8516 76.126C21.8359 85.2666 21.1165 91.9951 20.6934 96.3115C20.8626 96.5654 21.2435 97.2002 21.8359 98.2158C22.513 99.1468 23.2324 100.205 23.9941 101.39C24.7559 102.49 25.6022 103.802 26.5332 105.325C27.5488 106.849 28.5645 108.33 29.5801 109.769C30.6803 111.123 31.8229 112.477 33.0078 113.831C34.1927 115.185 35.3353 116.328 36.4355 117.259C37.5358 118.19 38.5938 118.909 39.6094 119.417C40.7096 120.009 41.7253 120.221 42.6562 120.052C43.6719 119.882 44.5182 119.332 45.1953 118.401ZM101.055 52.1318C106.556 52.0472 111.084 53.7399 114.639 57.21C119.463 61.8649 119.674 67.5355 115.273 74.2217C111.042 80.7386 102.705 87.4248 90.2637 94.2803C95.2572 114.593 105.498 109.472 120.986 78.9189C122.425 75.9567 124.372 71.8942 126.826 66.7314C128.265 63.7692 129.238 61.7803 129.746 60.7646C130.169 60.2568 130.804 60.0452 131.65 60.1299C132.497 60.2145 132.962 60.5107 133.047 61.0186C130.762 69.4821 127.546 77.861 123.398 86.1553C119.251 94.3649 114.469 101.601 109.053 107.864C103.721 114.127 97.7539 117.005 91.1523 116.497C84.6354 115.989 78.4993 111.08 72.7441 101.771C71.5592 99.7393 70.7552 97.2002 70.332 94.1533C69.8242 91.0218 69.6973 87.6787 69.9512 84.124C70.1204 80.5693 70.9245 77.0146 72.3633 73.46C73.8021 69.8206 75.6641 66.5199 77.9492 63.5576C80.2344 60.5107 83.3659 57.9717 87.3438 55.9404C91.4062 53.8245 95.9766 52.555 101.055 52.1318ZM107.91 60.0029C105.117 59.9183 102.24 61.8649 99.2773 65.8428C96.3151 69.8206 94.0723 73.9678 92.5488 78.2842C91.0254 82.516 90.5599 85.2243 91.1523 86.4092C96.4844 84.7165 101.562 80.9925 106.387 75.2373C111.042 69.736 112.734 65.4619 111.465 62.415C110.872 61.1455 109.688 60.3415 107.91 60.0029ZM137.617 53.9092C139.056 53.4014 140.452 53.1475 141.807 53.1475C143.161 53.0628 144.473 53.3167 145.742 53.9092C147.012 54.417 148.07 54.8825 148.916 55.3057C149.847 55.7288 150.947 56.5329 152.217 57.7178C153.486 58.818 154.375 59.6644 154.883 60.2568C155.391 60.7646 156.279 61.6956 157.549 63.0498C158.141 60.2568 159.876 58.2679 162.754 57.083C165.632 55.8135 168.382 55.6019 171.006 56.4482C173.63 57.2946 174.899 58.9027 174.814 61.2725C168.128 89.1175 166.986 102.532 171.387 101.517C175.703 100.586 184.336 86.5785 197.285 59.4951C197.37 59.4105 197.666 59.3258 198.174 59.2412C198.682 59.1566 199.147 59.1566 199.57 59.2412C200.078 59.3258 200.29 59.5798 200.205 60.0029C199.189 63.8115 198.301 66.9854 197.539 69.5244C196.862 72.0635 195.846 75.3219 194.492 79.2998C193.138 83.2777 191.826 86.5785 190.557 89.2021C189.287 91.8258 187.679 94.6611 185.732 97.708C183.87 100.755 181.924 103.125 179.893 104.817C177.861 106.51 175.492 107.864 172.783 108.88C170.16 109.811 167.367 110.107 164.404 109.769C160.003 109.176 156.999 106.595 155.391 102.024C152.767 106.849 149.17 109.853 144.6 111.038C140.114 112.138 135.163 110.869 129.746 107.229C126.022 104.013 123.822 98.4274 123.145 90.4717C122.467 82.4313 123.483 74.7295 126.191 67.3662C128.9 59.9183 132.708 55.4326 137.617 53.9092ZM156.279 70.0322C153.74 67.07 151.286 65.7581 148.916 66.0967C146.631 66.0967 144.642 68.4242 142.949 73.0791C141.341 77.6494 140.495 82.4736 140.41 87.5518C140.41 92.6299 141.003 96.9463 142.188 100.501C143.457 102.024 145.234 100.966 147.52 97.3271C149.805 93.6032 152.09 88.9059 154.375 83.2354C154.967 78.3265 155.602 73.9255 156.279 70.0322ZM190.684 36.6436C198.047 35.2894 202.66 36.6436 204.521 40.7061C206.468 44.7686 204.86 51.3278 199.697 60.3838C202.406 60.0452 205.833 58.8604 209.98 56.8291C214.128 54.7132 216.921 53.0205 218.359 51.751C219.629 50.6507 221.068 50.0583 222.676 49.9736C224.284 49.8044 225.765 50.016 227.119 50.6084C228.558 51.2008 229.87 51.8779 231.055 52.6396C232.24 53.3167 233.171 53.9938 233.848 54.6709C234.525 55.348 234.821 55.7288 234.736 55.8135C234.99 56.152 233.678 60.0029 230.801 67.3662C228.008 74.6449 225.553 82.0081 223.438 89.4561C221.322 96.8193 221.195 101.009 223.057 102.024C226.188 103.886 230.251 101.982 235.244 96.3115C240.238 90.5563 244.596 84.124 248.32 77.0146C252.044 69.9053 254.541 64.277 255.811 60.1299C256.149 59.4528 256.911 59.4105 258.096 60.0029C258.35 60.1722 258.519 60.2992 258.604 60.3838C258.35 65.208 256.657 71.3018 253.525 78.665C250.394 85.9437 246.416 92.7145 241.592 98.9775C236.768 105.241 231.478 109.726 225.723 112.435C219.967 115.143 214.382 114.297 208.965 109.896C207.526 108.118 206.722 105.325 206.553 101.517C206.383 97.6234 206.722 93.4339 207.568 88.9482C208.499 84.4626 209.473 80.1462 210.488 75.999C211.589 71.8519 212.604 68.0856 213.535 64.7002C214.551 61.3148 215.101 59.2835 215.186 58.6064C212.139 60.1299 209.938 61.1878 208.584 61.7803C207.314 62.3727 205.368 63.0921 202.744 63.9385C200.205 64.7848 197.878 65.1234 195.762 64.9541C193.73 64.7002 191.657 64.0231 189.541 62.9229C186.663 60.9762 184.717 58.0986 183.701 54.29C182.601 50.3968 182.686 46.7152 183.955 43.2451C185.225 39.7751 187.467 37.5745 190.684 36.6436ZM198.682 43.499C196.82 43.4144 195.339 44.557 194.238 46.9268C193.053 49.2965 192.546 51.8779 192.715 54.6709C192.884 57.3792 193.646 59.1989 195 60.1299C195.085 59.7067 195.423 58.818 196.016 57.4639C196.608 56.0251 197.201 54.5863 197.793 53.1475C198.385 51.7087 198.893 50.2699 199.316 48.8311C199.824 47.3076 200.036 46.0804 199.951 45.1494C199.867 44.1338 199.443 43.5837 198.682 43.499ZM260.635 21.5361C283.232 20.6051 311.797 21.2399 346.328 23.4404C349.036 26.7412 350.01 29.9997 349.248 33.2158C348.571 36.3473 347.174 38.167 345.059 38.6748C337.018 38.4209 326.27 37.9554 312.812 37.2783C312.22 42.9489 310.993 52.4704 309.131 65.8428C307.354 79.1305 305.83 91.2334 304.561 102.151C303.291 112.985 302.656 121.025 302.656 126.272C302.656 127.796 301.556 129.023 299.355 129.954C297.155 130.885 294.954 131.097 292.754 130.589C290.553 130.166 289.453 129.023 289.453 127.161C288.607 124.284 288.099 112.9 287.93 93.0107C287.76 73.0368 288.522 54.1208 290.215 36.2627C276.25 35.6702 266.644 35.374 261.396 35.374C258.096 35.5433 256.022 34.4854 255.176 32.2002C254.329 29.8304 254.541 27.4606 255.811 25.0908C257.08 22.721 258.688 21.5361 260.635 21.5361ZM337.061 36.6436C344.424 35.2894 349.036 36.6436 350.898 40.7061C352.845 44.7686 351.237 51.3278 346.074 60.3838C348.783 60.0452 352.21 58.8604 356.357 56.8291C360.505 54.7132 363.298 53.0205 364.736 51.751C366.006 50.6507 367.445 50.0583 369.053 49.9736C370.661 49.8044 372.142 50.016 373.496 50.6084C374.935 51.2008 376.247 51.8779 377.432 52.6396C378.617 53.3167 379.548 53.9938 380.225 54.6709C380.902 55.348 381.198 55.7288 381.113 55.8135C381.367 56.152 380.055 60.0029 377.178 67.3662C374.385 74.6449 371.93 82.0081 369.814 89.4561C367.699 96.8193 367.572 101.009 369.434 102.024C372.565 103.886 376.628 101.982 381.621 96.3115C386.615 90.5563 390.973 84.124 394.697 77.0146C398.421 69.9053 400.918 64.277 402.188 60.1299C402.526 59.4528 403.288 59.4105 404.473 60.0029C404.727 60.1722 404.896 60.2992 404.98 60.3838C404.727 65.208 403.034 71.3018 399.902 78.665C396.771 85.9437 392.793 92.7145 387.969 98.9775C383.145 105.241 377.855 109.726 372.1 112.435C366.344 115.143 360.758 114.297 355.342 109.896C353.903 108.118 353.099 105.325 352.93 101.517C352.76 97.6234 353.099 93.4339 353.945 88.9482C354.876 84.4626 355.85 80.1462 356.865 75.999C357.965 71.8519 358.981 68.0856 359.912 64.7002C360.928 61.3148 361.478 59.2835 361.562 58.6064C358.516 60.1299 356.315 61.1878 354.961 61.7803C353.691 62.3727 351.745 63.0921 349.121 63.9385C346.582 64.7848 344.255 65.1234 342.139 64.9541C340.107 64.7002 338.034 64.0231 335.918 62.9229C333.04 60.9762 331.094 58.0986 330.078 54.29C328.978 50.3968 329.062 46.7152 330.332 43.2451C331.602 39.7751 333.844 37.5745 337.061 36.6436ZM345.059 43.499C343.197 43.4144 341.715 44.557 340.615 46.9268C339.43 49.2965 338.923 51.8779 339.092 54.6709C339.261 57.3792 340.023 59.1989 341.377 60.1299C341.462 59.7067 341.8 58.818 342.393 57.4639C342.985 56.0251 343.577 54.5863 344.17 53.1475C344.762 51.7087 345.27 50.2699 345.693 48.8311C346.201 47.3076 346.413 46.0804 346.328 45.1494C346.243 44.1338 345.82 43.5837 345.059 43.499ZM409.043 42.7373C413.275 41.637 416.152 42.2295 417.676 44.5146C418.438 45.8688 418.48 47.7308 417.803 50.1006C417.126 52.3857 415.898 53.7399 414.121 54.1631C412.259 54.6709 410.27 54.7555 408.154 54.417C406.038 53.9938 404.684 53.1475 404.092 51.8779C403.415 50.4391 403.584 48.6618 404.6 46.5459C405.7 44.43 407.181 43.1605 409.043 42.7373ZM398.887 58.8604C400.241 57.083 403.626 56.5752 409.043 57.3369C414.544 58.0986 417.38 59.3682 417.549 61.1455C417.38 61.8226 417.168 62.7536 416.914 63.9385C416.66 65.1234 416.279 67.4085 415.771 70.7939C415.264 74.1794 414.883 77.3955 414.629 80.4424C414.375 83.4893 414.333 86.8747 414.502 90.5986C414.671 94.238 415.137 97.2848 415.898 99.7393C418.438 106.341 422.585 102.236 428.34 87.4248C430.794 80.9925 433.714 71.9365 437.1 60.2568C437.607 59.4951 438.285 59.0719 439.131 58.9873C439.977 58.9027 440.697 59.0296 441.289 59.3682C441.882 59.7067 442.135 60.0029 442.051 60.2568C441.204 69.9053 438.327 80.4847 433.418 91.9951C427.493 105.96 421.273 113.746 414.756 115.354C409.762 116.624 405.065 113.789 400.664 106.849C396.094 100.332 395.12 86.7054 397.744 65.9697L398.887 58.8604ZM470.996 53.1475C482.253 53.1475 485.85 62.4574 481.787 81.0771C488.135 75.3219 494.271 68.1702 500.195 59.6221C500.534 59.1989 501.084 59.0296 501.846 59.1143C502.607 59.1143 503.285 59.3682 503.877 59.876C504.469 60.3838 504.596 60.8916 504.258 61.3994C497.233 73.5023 488.981 83.1084 479.502 90.2178C475.947 101.728 472.308 108.88 468.584 111.673C465.791 114.466 462.194 115.439 457.793 114.593C453.477 113.746 450.472 111.842 448.779 108.88C447.171 105.918 447.552 102.617 449.922 98.9775C451.445 97.2002 455.339 95.5498 461.602 94.0264C466.68 83.9548 469.261 76.0837 469.346 70.4131C469.346 66.943 468.076 65.335 465.537 65.5889C464.521 65.4196 463.464 65.5465 462.363 65.9697C461.263 66.3929 460.205 67.1123 459.189 68.1279C458.258 69.1436 457.37 70.2015 456.523 71.3018C455.677 72.402 454.788 73.7985 453.857 75.4912C452.926 77.0993 452.165 78.4958 451.572 79.6807C450.98 80.7809 450.26 82.1774 449.414 83.8701C448.652 85.4782 448.102 86.5785 447.764 87.1709C447.679 94.4495 447.637 110.573 447.637 135.54C447.721 138.502 446.621 140.491 444.336 141.507C442.135 142.522 439.893 142.607 437.607 141.761C435.322 140.914 434.222 139.729 434.307 138.206C432.952 131.181 432.021 121.237 431.514 108.372C430.921 95.4229 430.71 83.9548 430.879 73.9678C431.048 63.9808 431.387 58.2256 431.895 56.7021C431.556 55.6865 432.529 54.7132 434.814 53.7822C438.708 52.1742 442.347 52.0895 445.732 53.5283C447.34 54.2054 448.568 55.2633 449.414 56.7021C448.737 57.3792 448.271 63.1344 448.018 73.9678C450.811 67.5355 454.196 62.4574 458.174 58.7334C462.236 55.0094 466.51 53.1475 470.996 53.1475ZM457.158 101.771C454.704 102.532 453.138 103.125 452.461 103.548C451.868 103.971 451.953 104.521 452.715 105.198C453.053 105.706 453.604 105.664 454.365 105.071C455.127 104.394 456.058 103.294 457.158 101.771Z" fill="white"/>
<path d="M340.886 7.83296C340.286 7.46829 339.674 7.00447 339.515 6.79853C339.512 6.75673 339.511 6.70999 339.509 6.65915C339.476 5.77711 339.415 4.14347 336.022 2.50046C335.936 2.2973 335.814 2.1024 335.652 1.93578C335.252 1.52624 334.71 1.3893 334.126 1.54946C333.632 1.68518 333.311 1.90736 333.102 2.13902C332.499 2.15406 332.043 2.29761 331.634 2.42686C331.21 2.56106 330.843 2.67699 330.321 2.65207C330.071 2.64013 329.772 2.42097 329.427 2.16716C328.862 1.75149 328.158 1.23409 327.104 1.18381C325.919 1.12723 325.082 1.474 324.272 1.80945C323.156 2.27148 322.102 2.7078 319.947 2.16885C317.364 1.52282 313.153 2.31217 311.574 3.15966C310.126 3.93749 308.423 6.40318 306.514 10.4885C305.303 13.0792 304.38 15.5388 304.155 16.1523L302.892 17.2992C302.71 17.4649 302.644 17.7231 302.725 17.9558L303.88 21.2976C303.962 21.5355 304.181 21.6994 304.432 21.7114L306.4 21.8053C306.739 21.8216 307.028 21.5595 307.044 21.2198C307.06 20.8802 306.798 20.5918 306.458 20.5756L306.417 20.5736L306.454 19.7961C308.423 19.6487 310.918 18.4689 312.29 17.3223C312.47 17.1716 312.648 17.0319 312.823 16.9007C312.99 17.2635 313.207 17.5818 313.42 17.8914C313.947 18.6581 314.444 19.3823 314.371 20.9122C314.353 21.3011 314.644 21.4692 314.878 21.6042C314.988 21.668 315.141 21.7529 315.331 21.8567C315.655 22.033 315.979 22.2043 315.979 22.2043C316.059 22.2465 316.147 22.2706 316.237 22.2749L319.517 22.4314C319.856 22.4476 320.145 22.1856 320.161 21.8459C320.177 21.5063 319.915 21.2179 319.575 21.2017L318.32 21.1418C318.528 20.5194 318.96 19.7943 319.411 19.0378C319.688 18.5748 319.977 18.0898 320.239 17.5876C320.411 18.1717 320.663 18.7887 321.015 19.4334L320.952 20.7616C320.93 21.225 321.09 21.6693 321.401 22.0123C321.713 22.3554 322.14 22.5567 322.604 22.5788L326.075 22.7445C326.414 22.7607 326.703 22.4987 326.719 22.159C326.735 21.8194 326.473 21.531 326.134 21.5147L325.509 21.4849L326.284 16.6292C326.511 16.5264 326.837 16.3667 327.218 16.1452C327.502 17.2014 328.493 20.0354 331.141 20.9596L333.582 22.9794C333.685 23.0643 333.812 23.1137 333.945 23.12L337.88 23.3079C338.22 23.3241 338.508 23.062 338.524 22.7224C338.54 22.3827 338.278 22.0943 337.939 22.0781L337.283 22.0468C336.778 22.0227 336.215 20.7642 335.671 19.5469C335.157 18.3968 334.523 16.9782 333.602 15.6973C333.644 14.8169 333.705 12.4278 333.225 11.2537L335.82 11.3776C336.008 11.3865 336.19 11.3091 336.313 11.1674C336.668 10.7607 337.389 10.7951 337.819 10.8156C339.382 10.8902 340.057 10.6445 340.176 10.5944C340.332 10.5289 340.455 10.4019 340.514 10.2433L341.142 8.57515C341.246 8.2985 341.138 7.98679 340.886 7.83296ZM318.354 18.4072C317.798 19.3384 317.268 20.2279 317.057 21.0816L316.433 21.0518C316.138 20.8946 315.823 20.724 315.609 20.6043C315.604 18.8958 314.959 17.9578 314.435 17.1943C314.197 16.8491 313.989 16.5455 313.871 16.2153C315.795 15.1335 317.573 15.1085 319.848 15.2166C319.621 16.2807 318.979 17.3589 318.354 18.4072ZM334.547 20.0495C334.869 20.7702 335.164 21.4292 335.485 21.9613L334.208 21.9004L331.837 19.9384C331.777 19.8887 331.708 19.8507 331.634 19.8268C329.031 18.9883 328.34 15.5531 328.334 15.5196C328.327 15.4869 328.318 15.4558 328.307 15.4254C329.249 14.7203 330.271 13.7169 330.962 12.365C331.277 12.2898 331.741 12.1517 332.163 11.9197C332.386 12.6883 332.445 14.4218 332.361 15.8484C332.353 15.9935 332.396 16.1371 332.483 16.2533C333.394 17.4708 334.007 18.8408 334.547 20.0495ZM339.474 9.5128C339.203 9.56409 338.691 9.62499 337.878 9.58618C337.365 9.56174 336.353 9.51343 335.613 10.1354L333.231 10.0217C332.777 10.0001 332.399 9.65826 332.331 9.20891L332.124 7.83488C332.073 7.49877 331.759 7.2678 331.423 7.31796C331.087 7.36871 330.856 7.68229 330.906 8.0184L331.113 9.39243C331.191 9.90592 331.446 10.358 331.811 10.6881C331.546 10.8953 330.982 11.1215 330.435 11.2176C330.235 11.2522 330.065 11.3831 329.981 11.5674C328.686 14.3864 325.544 15.6082 325.513 15.6199C325.306 15.6977 325.157 15.8806 325.122 16.0989L324.271 21.4261L322.662 21.3493C322.527 21.3428 322.403 21.2842 322.312 21.1842C322.221 21.0845 322.175 20.9553 322.181 20.8204L322.253 19.3166C322.259 19.2 322.231 19.0843 322.173 18.9828C319.76 14.7408 322.339 11.9681 322.456 11.8458C322.692 11.6024 322.687 11.2139 322.444 10.9768C322.201 10.7393 321.811 10.7439 321.574 10.9871C321.538 11.0235 320.699 11.895 320.23 13.3949C320.17 13.5856 320.115 13.7927 320.068 14.0139C320.021 13.9996 319.971 13.9901 319.919 13.9876C316.839 13.8406 314.432 13.926 311.5 16.3778C309.831 17.7735 307.255 18.6417 305.896 18.5768C305.557 18.5606 305.268 18.8227 305.252 19.1624L305.188 20.515L304.907 20.5016L304.021 17.9374L305.095 16.9613C305.169 16.8936 305.226 16.8086 305.26 16.7139C306.345 13.6929 309.699 5.56369 312.156 4.24448C313.386 3.5843 317.303 2.77636 319.649 3.36328C322.197 4.00069 323.549 3.44093 324.742 2.94707C325.49 2.63754 326.135 2.37024 327.045 2.41369C327.728 2.44626 328.199 2.79257 328.698 3.15938C329.162 3.49997 329.641 3.85223 330.262 3.88188C331.004 3.91729 331.536 3.74921 332.005 3.60086C332.243 3.52593 332.463 3.45754 332.702 3.41443C332.748 3.92069 332.969 4.32288 333.006 4.38653C333.115 4.57571 333.31 4.68598 333.513 4.69569C333.626 4.7011 333.742 4.67535 333.847 4.61462C334.142 4.44501 334.245 4.07051 334.075 3.77596C333.997 3.63514 333.865 3.27374 333.956 3.05515C334.028 2.8847 334.265 2.78791 334.452 2.73671C334.639 2.68536 334.711 2.7372 334.765 2.78969C334.926 2.94823 334.971 3.2505 334.949 3.33976C334.851 3.66529 335.035 4.00867 335.361 4.10684C335.615 4.18324 335.879 4.08744 336.029 3.8874C338.217 5.07746 338.254 6.04556 338.279 6.70453C338.282 6.80628 338.286 6.9023 338.295 6.99869C338.314 7.18526 338.361 7.65494 339.813 8.61121L339.474 9.5128Z" fill="white"/>
</svg>
